<svg xmlns="http://www.w3.org/2000/svg" width="1200" height="720" viewBox="0 0 1200 720">
  <style>
    text{font-family:-apple-system,BlinkMacSystemFont,"Segoe UI",sans-serif;fill:#242424}
    .small{font-size:13px}.ui{font-size:15px}.muted{fill:#777}.mono{font-family:ui-monospace,SFMono-Regular,Menlo,monospace}.callout{fill:#e5484d}.calloutText{fill:#fff;font-weight:700;font-size:18px}.white{fill:#fff}.terminalText{fill:#d4d4d4}.terminalGreen{fill:#7ee787}
  </style>
  <rect width="1200" height="720" rx="12" fill="#fff"/><rect width="1200" height="38" rx="12" fill="#f3f3f3"/>
  <circle cx="18" cy="19" r="6" fill="#ff5f57"/><circle cx="38" cy="19" r="6" fill="#ffbd2e"/><circle cx="58" cy="19" r="6" fill="#28c840"/>
  <rect x="450" y="8" width="300" height="23" rx="6" fill="#e8e8e8"/><text x="600" y="24" text-anchor="middle" class="small">finspec — Visual Studio Code</text>
  <rect y="38" width="50" height="658" fill="#f5f5f5"/><rect x="50" y="38" width="340" height="658" fill="#f8f8f8"/>
  <rect x="2" y="278" width="46" height="42" fill="#e2e2e2"/>
  <g transform="translate(13 286)" stroke="#333" stroke-width="1.8" fill="none" stroke-linecap="round" stroke-linejoin="round">
    <path d="M5 8.5V5.8A1.8 1.8 0 0 1 6.8 4h10.4A1.8 1.8 0 0 1 19 5.8v8.4a1.8 1.8 0 0 1-1.8 1.8H12l-4.5 3v-3h-.7A1.8 1.8 0 0 1 5 14.2V12"/>
    <path d="M8 7.5h8M8 11h5M2.5 8.5 5 11l2.5-2.5"/>
  </g>
  <text x="68" y="68" class="small muted">THREADRELINK: CODEX CONVERSATIONS</text>
  <text x="72" y="111" class="ui" font-weight="650">▾  finspec</text>
  <text x="92" y="150" class="ui" font-weight="600">▾  Conversations</text>
  <rect x="78" y="164" width="296" height="48" rx="6" fill="#e8f2fb"/><text x="104" y="188" class="ui">Plan a safe repository rename</text><text x="104" y="205" class="small muted">today</text>
  <rect x="390" y="38" width="810" height="345" fill="#fff"/><rect x="390" y="38" width="810" height="36" fill="#f6f6f6"/>
  <text x="414" y="62" class="small">README.md</text><text x="445" y="150" font-size="27" font-weight="650">Conversation restored</text>
  <text x="445" y="190" class="ui muted">ThreadRelink opened the original thread in the renamed project.</text>
  <rect x="390" y="383" width="810" height="313" fill="#181818"/>
  <rect x="390" y="383" width="810" height="40" fill="#202020"/><text x="414" y="408" class="small white" font-weight="600">TERMINAL</text>
  <text x="430" y="466" class="mono ui terminalText">ThreadRelink demo</text>
  <text x="430" y="505" class="mono ui terminalText">Resumed: Plan a safe repository rename</text>
  <text x="430" y="544" class="mono ui terminalText">Working directory: ~/Desktop/finspec</text>
  <text x="430" y="583" class="mono ui terminalText">Conversation: 019f0000-0000-7000-8000-000000000001</text>
  <rect x="416" y="519" width="465" height="42" rx="7" fill="none" stroke="#e5484d" stroke-width="4"/>
  <circle cx="915" cy="540" r="20" class="callout"/><text x="915" y="547" text-anchor="middle" class="calloutText">6</text>
  <path d="M894 540h-13" stroke="#e5484d" stroke-width="4"/><path d="M881 540l9-7v14z" fill="#e5484d"/>
  <text x="430" y="637" class="mono small terminalGreen">The original Codex thread is attached to the renamed project.</text>
  <rect y="696" width="1200" height="24" fill="#007acc"/><text x="14" y="713" class="small white">main*</text>
</svg>
